<?xml version="1.0" standalone="no"?>
<!DOCTYPE svg PUBLIC "-//W3C//DTD SVG 20010904//EN"
 "http://www.w3.org/TR/2001/REC-SVG-20010904/DTD/svg10.dtd">
<svg version="1.0" xmlns="http://www.w3.org/2000/svg"
 width="400.000000pt" height="400.000000pt" viewBox="0 0 400.000000 400.000000"
 preserveAspectRatio="xMidYMid meet">
<metadata>
Created by potrace 1.14, written by Peter Selinger 2001-2017
</metadata>
<g transform="translate(0.000000,400.000000) scale(0.100000,-0.100000)"
fill="#000000" stroke="none">
<path d="M1485 3836 c-52 -24 -101 -72 -132 -129 -16 -29 -18 -73 -21 -464
l-3 -432 -567 0 c-312 0 -576 -2 -587 -5 -11 -2 -23 -5 -26 -5 -18 -2 -112
-99 -130 -132 -19 -38 -19 -66 -19 -1207 l0 -1169 29 -39 c36 -49 66 -77 114
-103 37 -21 39 -21 1192 -21 l1154 0 37 22 c72 42 125 113 141 188 3 14 6 208
6 432 0 225 3 409 6 409 3 1 254 2 556 3 546 2 550 2 601 25 63 27 106 71 134
134 l22 49 0 1131 c0 1129 0 1132 -21 1179 -25 56 -68 101 -125 131 l-41 22
-1135 2 -1135 3 -50 -24z m1971 -1313 l-1 -807 -390 0 -390 0 -2 429 c-2 262
-7 447 -13 473 -20 81 -84 152 -163 181 -29 11 -624 17 -635 7 -6 -7 -6 -1085
1 -1092 2 -3 183 -5 400 -6 l396 0 3 -22 c2 -11 2 -127 0 -257 l-3 -236 -552
2 c-478 2 -581 5 -594 15 -2 2 -6 3 -10 5 -51 14 -101 59 -138 125 -19 34 -20
57 -21 752 l-2 717 255 0 c140 0 258 2 261 6 4 4 8 113 8 243 1 131 2 245 3
255 1 16 46 17 794 17 l794 0 -1 -807z"/>
</g>
</svg>
